<svg width="17" height="21" viewBox="0 0 17 21" fill="none" xmlns="http://www.w3.org/2000/svg">
<path d="M16.35 17.025V0.825C16.35 0.375 16.05 0.0749999 15.6 0.0749999L2.25 0C0.975 0 0 1.05 0 2.25V18.6C0 19.95 1.05 21 2.4 21H15.6C15.825 21 16.125 20.85 16.275 20.625C16.425 20.4 16.425 20.1 16.275 19.875C15.825 18.975 15.825 18.15 16.275 17.25C16.275 17.25 16.35 17.175 16.35 17.025ZM14.55 19.5H2.4C1.875 19.5 1.5 19.125 1.5 18.6C1.5 18.075 1.875 17.7 2.4 17.7H14.55C14.4 18.3 14.4 18.9 14.55 19.5ZM14.85 16.2H2.4C2.1 16.2 1.8 16.275 1.5 16.35V2.25C1.5 1.8 1.875 1.5 2.25 1.5H14.85V16.2Z" fill="#727D9F"/>
<path d="M5.09996 6H11.25C11.7 6 12 5.7 12 5.25C12 4.8 11.7 4.5 11.25 4.5H5.09996C4.64996 4.5 4.34996 4.8 4.34996 5.25C4.34996 5.7 4.72496 6 5.09996 6Z" fill="#727D9F"/>
<path d="M5.09996 9.07495H11.25C11.7 9.07495 12 8.77495 12 8.32495C12 7.87495 11.7 7.57495 11.25 7.57495H5.09996C4.64996 7.57495 4.34996 7.87495 4.34996 8.32495C4.34996 8.77495 4.72496 9.07495 5.09996 9.07495Z" fill="#727D9F"/>
<path d="M5.09996 12.075H11.25C11.7 12.075 12 11.775 12 11.325C12 10.875 11.7 10.575 11.25 10.575H5.09996C4.64996 10.575 4.34996 10.875 4.34996 11.325C4.34996 11.775 4.72496 12.075 5.09996 12.075Z" fill="#727D9F"/>
</svg>
