<svg viewBox="0 0 22 21" fill="none" xmlns="http://www.w3.org/2000/svg">
<path d="M11 18.1536C10.8866 18.1537 10.777 18.1132 10.691 18.0393C9.45327 16.9783 7.9855 16.2201 6.40392 15.8247C4.82235 15.4294 3.17044 15.4078 1.57908 15.7617C1.50947 15.7771 1.43729 15.7767 1.36787 15.7604C1.29845 15.7442 1.23355 15.7126 1.17797 15.668C1.1224 15.6233 1.07755 15.5667 1.04676 15.5024C1.01596 15.4381 0.999995 15.3677 1.00004 15.2964V3.06553C0.997948 2.77975 1.08251 2.50005 1.24258 2.2633C1.40266 2.02655 1.63072 1.84387 1.8967 1.73935C3.36224 1.16069 4.93852 0.91666 6.51042 1.02508C8.08233 1.1335 9.61018 1.59163 10.9824 2.36601C12.5821 1.48072 14.3798 1.01451 16.2081 1.01078H16.2381C17.5551 1.01484 18.86 1.26149 20.0876 1.73839C20.3572 1.84129 20.5889 2.02396 20.752 2.26203C20.915 2.5001 21.0015 2.78224 21 3.07077V15.2964C21 15.3677 20.9841 15.4381 20.9533 15.5024C20.9225 15.5667 20.8776 15.6233 20.822 15.668C20.7665 15.7126 20.7016 15.7442 20.6322 15.7604C20.5627 15.7767 20.4905 15.7771 20.4209 15.7617C18.8296 15.4078 17.1777 15.4294 15.5961 15.8247C14.0145 16.2201 12.5467 16.9783 11.3091 18.0393C11.2231 18.1132 11.1134 18.1537 11 18.1536ZM3.86051 14.5612C4.69487 14.5608 5.52679 14.6514 6.34145 14.8317C8.04294 15.2127 9.63579 15.9748 11 17.0607C12.2584 16.0557 13.7148 15.3277 15.2739 14.9242C16.833 14.5207 18.4597 14.4509 20.0476 14.7193V3.07077C20.0484 2.9748 20.02 2.88086 19.966 2.80148C19.9121 2.7221 19.8352 2.66106 19.7457 2.62649C18.6271 2.19193 17.4381 1.96707 16.2381 1.96316H16.2095C14.455 1.9675 12.7331 2.43782 11.22 3.32601C11.1463 3.36914 11.0624 3.39168 10.9771 3.39126C10.8917 3.39084 10.808 3.36748 10.7348 3.32363C9.46795 2.56414 8.04342 2.1062 6.57134 1.98524C5.09926 1.86427 3.61908 2.08351 2.24527 2.62601C2.15773 2.66106 2.08288 2.72183 2.0306 2.8003C1.97831 2.87877 1.95105 2.97125 1.95242 3.06553V14.7193C2.583 14.6141 3.2212 14.5612 3.86051 14.5612Z" fill="#727D9F" stroke="#727D9F" stroke-width="0.5"/>
<path d="M11 20.0584C10.8737 20.0584 10.7526 20.0083 10.6633 19.919C10.574 19.8297 10.5238 19.7086 10.5238 19.5823V2.91564C10.5238 2.78935 10.574 2.66823 10.6633 2.57893C10.7526 2.48962 10.8737 2.43945 11 2.43945C11.1263 2.43945 11.2474 2.48962 11.3367 2.57893C11.426 2.66823 11.4762 2.78935 11.4762 2.91564V19.5823C11.4762 19.7086 11.426 19.8297 11.3367 19.919C11.2474 20.0083 11.1263 20.0584 11 20.0584Z" fill="#727D9F" stroke="#727D9F" stroke-width="0.5"/>
<path d="M11 20.0583C10.9299 20.0582 10.8607 20.0428 10.7972 20.013C8.073 18.7295 5.04629 18.2264 2.05338 18.5597C1.92055 18.5745 1.78609 18.561 1.65882 18.5201C1.53156 18.4793 1.41436 18.412 1.31491 18.3228C1.21545 18.2335 1.13599 18.1242 1.08173 18.002C1.02747 17.8799 0.999638 17.7476 1.00005 17.614V14.8202C1.00005 14.6939 1.05022 14.5728 1.13953 14.4835C1.22883 14.3942 1.34995 14.344 1.47624 14.344C1.60254 14.344 1.72366 14.3942 1.81296 14.4835C1.90226 14.5728 1.95243 14.6939 1.95243 14.8202V17.614C5.04339 17.2692 8.17002 17.7683 11 19.0583C13.8316 17.7684 16.9596 17.2695 20.0519 17.6145L20.0476 14.8202C20.0476 14.6939 20.0978 14.5728 20.1871 14.4835C20.2764 14.3942 20.3975 14.344 20.5238 14.344C20.6501 14.344 20.7712 14.3942 20.8605 14.4835C20.9498 14.5728 21 14.6939 21 14.8202V17.614C21.0004 17.7476 20.9726 17.8799 20.9183 18.002C20.8641 18.1242 20.7846 18.2335 20.6851 18.3228C20.5857 18.412 20.4685 18.4793 20.3412 18.5201C20.214 18.561 20.0795 18.5745 19.9467 18.5597C16.9538 18.2264 13.927 18.7295 11.2029 20.013C11.1394 20.0428 11.0701 20.0582 11 20.0583Z" fill="#727D9F" stroke="#727D9F" stroke-width="0.5"/>
</svg>
