<svg width="19" height="20" viewBox="0 0 19 20" fill="none" xmlns="http://www.w3.org/2000/svg">
<path d="M9.59091 9.09091C12.1013 9.09091 14.1364 7.05584 14.1364 4.54545C14.1364 2.03507 12.1013 0 9.59091 0C7.08053 0 5.04546 2.03507 5.04546 4.54545C5.04546 7.05584 7.08053 9.09091 9.59091 9.09091Z" fill="#23466C"/>
<path d="M11.2818 16.1092L9.59092 11.0547L7.90001 16.1092V16.1183L9.59092 17.8092L11.2818 16.1183V16.1092Z" fill="#23466C"/>
<path d="M11.4091 10H11.1545L13.1636 16.0182C13.2291 16.1851 13.2451 16.3673 13.2096 16.5431C13.1742 16.7189 13.0887 16.8807 12.9636 17.0091L9.97272 20H17.7727C18.0136 19.9993 18.2444 19.9033 18.4148 19.733C18.5851 19.5626 18.6811 19.3318 18.6818 19.0909V17.2727C18.6793 15.3447 17.9122 13.4963 16.5489 12.1329C15.1855 10.7696 13.3371 10.0025 11.4091 10Z" fill="#23466C"/>
<path d="M6.21818 17.0091C6.09306 16.8807 6.00764 16.7189 5.97216 16.5431C5.93669 16.3673 5.95267 16.1851 6.01818 16.0182L8.02727 10H7.77273C5.84466 10.0025 3.9963 10.7696 2.63295 12.1329C1.2696 13.4963 0.50255 15.3447 0.5 17.2727V19.0909C0.500696 19.3318 0.596698 19.5626 0.767035 19.733C0.937372 19.9033 1.1682 19.9993 1.40909 20H9.21818C9.21818 20 8.63718 19.4281 6.21818 17.0091Z" fill="#23466C"/>
</svg>
