<svg viewBox="0 0 104 104" fill="none" xmlns="http://www.w3.org/2000/svg">
<path d="M75.3367 61.7109C75.0843 64.6888 73.6205 67.2047 71.8538 69.4639C70.7433 70.9016 70.1375 72.3392 70.2385 74.1876C70.3899 76.7549 69.9861 79.3734 70.4404 81.9407C70.7937 84.0971 71.8538 85.8429 73.4185 87.2805C74.2262 87.9993 74.1757 88.6155 73.4185 89.2316C67.3613 94.2634 60.9507 98.7304 53.682 101.708C52.5715 102.17 51.5619 102.119 50.4514 101.298C47.019 98.7817 43.5361 96.3685 40.0027 94.0067C38.0845 92.6717 36.7217 90.8746 35.914 88.7695C35.3083 87.1778 34.6521 85.6375 36.9236 84.1998C39.5484 82.5055 40.5579 76.3441 39.195 73.4688C38.6398 72.2879 37.5798 71.6717 36.6712 70.8502C34.9045 69.3099 33.5921 67.5641 33.1883 65.2023C32.9863 64.0214 32.4816 63.3025 31.1187 63.5593C29.8568 63.7646 29.251 63.1999 29.0491 61.8649C28.9482 60.992 28.5444 60.1192 27.8882 59.4003C24.809 56.0116 23.3957 52.0581 23.9005 47.437C23.9005 47.283 23.7995 47.0776 23.749 46.9236C24.3547 46.0507 24.8595 46.5642 25.0614 47.129C25.6167 48.5666 26.5253 49.7989 27.3834 51.0312C27.8882 51.75 27.7367 52.6742 27.8882 53.4957C28.292 55.7549 28.4434 58.2194 31.1692 59.4003C31.4216 58.5788 31.0682 57.86 30.9168 57.0898C30.2101 53.5471 29.352 50.0556 29.4025 46.3588C29.4025 43.3808 30.3615 40.5568 30.7149 37.6302C30.7653 37.1681 30.8663 35.8331 32.0273 36.86C32.1787 37.2708 32.1282 37.6815 32.1282 38.0923C32.1282 38.2463 32.1282 38.4004 31.9768 38.5544C32.2292 38.4004 32.0778 38.1436 32.1282 37.9383C32.2292 37.0141 32.3806 36.0899 32.532 35.1657C32.8349 34.0361 32.633 32.9065 32.734 31.7769C32.7844 31.1094 32.6835 30.4419 33.1378 29.8771C33.8445 29.5177 33.8445 30.2879 34.1473 30.5446C34.2987 30.0825 34.1473 29.6204 34.1978 29.1583C34.1978 28.2855 34.1473 27.4126 34.2987 26.5911C35.1569 25.1021 35.7626 24.8454 36.0655 26.0776C36.0655 26.3857 35.9645 26.6424 35.8635 26.8992C35.8131 27.0018 35.914 27.0532 35.8635 27.1559C35.9645 27.0532 35.8635 27.0018 35.914 26.8992C38.3874 23.6644 41.416 21.0459 45.0504 19.1975C45.4037 18.9407 45.8075 18.7867 46.2618 18.7867C46.4133 18.7867 46.6152 18.7867 46.7666 18.838C47.5742 19.0948 48.3819 19.0948 49.1895 18.838C49.3409 18.7867 49.5429 18.7867 49.6943 18.7354C51.7134 18.9407 53.4296 20.0703 55.2468 20.8405C56.1049 21.1999 56.9125 21.5593 57.8211 21.508C58.5783 21.508 59.3354 21.508 60.0926 21.508C61.0516 21.5593 62.0107 21.4053 62.9193 21.0459C64.4841 20.4297 64.8879 20.6864 65.3927 22.3295C65.5946 22.8943 65.6955 23.5104 65.847 24.1265C66.6041 26.9505 67.7146 29.5177 69.4309 31.8796C71.349 34.4982 73.1662 37.1168 74.4786 40.1461C75.2862 42.0458 75.7405 43.9456 75.3367 46.0507C74.4786 47.8991 74.9833 49.7989 74.8824 51.6986C74.8319 52.6228 75.0338 53.5471 74.8824 54.0092C75.0338 52.0067 74.6805 49.5935 75.0338 47.1803C76.1948 47.4884 75.9424 48.5153 75.9424 49.2854C76.0434 52.2634 75.8919 55.2414 76.1948 58.2194C75.7405 59.349 76.3462 60.7353 75.3367 61.7109Z" fill="#F4C9B7"/>
<path d="M74.9326 45.7943C75.0335 43.4838 74.6297 41.2759 73.4183 39.2735C72.2068 37.2197 71.0963 35.1146 69.6325 33.2662C67.0581 30.0314 65.5943 26.3346 64.7867 22.3297C64.5848 21.3029 64.3324 20.6867 63.2219 21.5082C62.3133 22.1757 61.2533 22.3297 60.1428 22.2271C59.2846 21.8163 58.4265 21.919 57.5684 22.1757C56.2055 22.3297 55.196 21.5596 54.035 21.0461C52.4702 20.3273 50.9054 19.5058 49.1892 19.1977C49.0883 19.095 49.0378 18.9923 49.0378 18.8897C48.3311 18.8897 47.6244 18.9923 46.8673 18.941C46.2111 18.8897 45.5044 18.787 45.2015 19.6598C41.7691 21.7136 38.4881 24.0241 36.0652 27.4129C35.4594 27.7209 35.6613 25.9752 35.6613 25.6158C35.0556 25.6671 34.8537 26.1293 34.6013 26.5914C34.2985 27.6182 34.3994 28.6451 34.5508 29.7234C34.3994 30.4935 34.7527 31.3664 34.1975 32.2906C33.5918 31.5718 33.5413 30.8016 33.4403 30.0828C32.6327 29.9288 32.986 30.5962 32.986 30.853C32.8851 32.4446 33.087 33.985 32.8851 35.5767C32.8346 36.5522 32.5318 37.9385 32.1784 38.8627C31.3708 38.8627 32.1784 37.6305 31.7746 37.3737C30.7146 36.5522 31.1689 37.8358 31.1689 37.9385C29.4022 44.562 29.705 51.1855 31.5222 57.7062C31.7746 58.5791 31.926 59.4519 32.1279 60.4275C28.7964 59.6573 27.7364 57.2441 27.585 54.3175C27.484 52.5204 27.1307 50.9801 25.8183 49.6965C25.2126 49.1317 24.8592 48.3101 24.7583 47.3859C24.6573 46.7185 24.304 46.6671 23.7992 46.9752C20.8715 42.5595 20.922 37.5791 21.023 32.5987C21.0734 31.007 21.3258 29.4153 21.4268 27.8236C21.4773 25.7185 21.8811 23.7161 22.9916 21.8676C23.6983 20.7381 24.7078 19.5058 23.6983 17.9655C23.4963 17.7087 23.7487 17.6574 23.8497 17.606C25.263 16.2711 25.7173 14.32 26.6764 12.7283C27.484 11.342 28.3422 10.0584 29.8565 9.33955C31.0174 8.77475 29.8565 8.92879 29.6546 8.77475C29.4022 8.56938 29.4022 8.364 29.6546 8.15862C34.1975 6.875 38.4881 4.9239 43.0815 3.79432C45.6053 3.17819 48.0282 2.25398 50.7035 2.20264C51.814 2.20264 52.874 2.5107 53.9845 2.20264C59.2846 2.66474 64.1809 4.41046 68.6229 7.43979C69.6829 8.15862 70.2887 9.2882 71.0963 10.3151C71.9544 11.4447 73.3678 12.2148 74.5792 13.0877C74.2259 13.1904 73.8725 13.2931 73.3173 13.4471C73.8725 14.1146 74.5792 14.2686 75.185 14.474C77.0526 15.1415 78.0622 16.4765 78.8193 18.2735C79.3746 19.6598 78.5669 19.2491 77.5069 19.1977C79.3241 21.4055 81.1917 23.3053 81.3432 26.0779C81.7975 26.6427 80.9898 27.1048 81.2422 27.6182C82.4537 34.3444 83.5642 41.0192 82.7061 47.8994C81.5451 47.7454 81.747 46.6158 81.3936 45.8969C81.3936 48.2588 80.9898 50.5693 79.8289 52.7258C78.8193 54.5742 77.9107 56.5253 77.0021 58.4764C76.8002 58.9385 76.5478 59.5546 75.8412 59.2466C75.5888 59.1439 75.6897 58.8358 75.7907 58.5791C75.084 54.7796 75.5888 50.8774 75.185 47.0265C74.6297 46.7185 74.7307 46.2564 74.9326 45.7943Z" fill="#062942"/>
<path d="M75.6393 58.7325C75.7907 58.9892 75.8412 59.6567 76.245 58.9892C79.2736 54.0088 80.4851 50.1579 80.788 44.6641C81.9994 45.4856 81.5451 47.1799 82.5547 48.0528C82.2518 51.6983 81.5451 55.2411 79.8289 58.5271C78.8193 60.4782 77.6079 61.8132 75.3364 61.7105C75.4374 60.889 75.3869 59.8621 75.4879 59.0406C75.4879 58.8865 75.5383 58.7838 75.6393 58.7325Z" fill="#FAD1BC"/>
<path d="M53.8836 2.25355C52.7731 2.81834 51.713 2.81834 50.6025 2.25355C51.713 1.8428 52.8235 1.99683 53.8836 2.25355Z" fill="#062942"/>
<path d="M59.6885 80.1437C55.5998 81.7868 51.5616 82.1462 47.7254 79.4249C47.6244 79.0655 47.7254 78.9115 48.1292 79.0141C51.7131 80.041 55.297 80.4005 58.9818 79.733C59.3351 79.5276 59.6885 79.4762 59.6885 80.1437Z" fill="#C69E8B"/>
<path d="M74.8816 45.229C74.9321 45.6911 74.9826 46.2046 75.0331 46.6667C75.0331 49.4393 75.0331 52.2119 75.0331 55.0358C74.6797 51.7498 73.4683 48.4637 74.8816 45.229Z" fill="#F4C9B7"/>
<path d="M59.6888 80.1434C59.5374 79.8354 59.2345 79.784 58.9316 79.784C60.0421 78.9625 61.3041 78.3464 62.566 77.8843C62.667 77.987 62.7174 78.0897 62.667 78.1923C62.6165 78.295 62.6165 78.3464 62.566 78.3464C61.6574 78.9112 60.6479 79.5273 59.6888 80.1434Z" fill="#C69E8B"/>
<path d="M45.2014 19.6081C44.7976 19.2487 44.949 19.0433 45.3529 18.838C46.6653 18.2732 48.0786 18.5299 49.4415 18.5299C49.4415 18.5299 49.492 18.6326 49.492 18.6839C49.3405 18.7866 49.391 19.0433 49.2396 19.146C48.3815 19.8649 47.17 18.9406 46.2614 19.2487C45.9081 19.3514 45.5548 19.4541 45.2014 19.6081Z" fill="#211E1C"/>
<path d="M62.6162 78.2953C62.6162 78.1413 62.6162 77.9872 62.6162 77.8332C63.3229 76.9603 64.3829 76.4982 65.342 76.0361C64.5848 77.0117 63.6258 77.6792 62.6162 78.2953Z" fill="#C69E8B"/>
<path d="M46.2617 19.1975C47.2713 18.7354 49.1389 19.0434 49.1894 19.1461V19.3002C48.3313 19.4029 47.5237 19.4542 46.6655 19.3002C46.5141 19.3002 46.4132 19.2488 46.2617 19.1975Z" fill="#F4C9B7"/>
<path d="M48.0788 79.0136C47.9274 79.1676 47.8264 79.2703 47.675 79.4243C47.2712 79.1163 46.6655 79.1163 46.4131 78.3975C47.1198 78.4488 47.675 78.6028 48.0788 79.0136Z" fill="#C69E8B"/>
<path d="M46.665 19.3001C47.5232 19.1461 48.3308 19.1461 49.1889 19.3001C48.3308 19.7108 47.5232 19.7622 46.665 19.3001Z" fill="#F4C9B7"/>
<path d="M57.5181 22.1752C58.3762 21.6617 59.2343 21.5591 60.0924 22.2265C59.2343 22.3806 58.3762 22.3806 57.5181 22.1752Z" fill="#062942"/>
</svg>
