<svg viewBox="0 0 104 104" fill="none" xmlns="http://www.w3.org/2000/svg">
<path d="M83.2732 61.3549C82.9292 61.8709 82.4705 62.2723 82.1838 62.8457C81.5531 64.0497 80.5784 64.1644 79.6037 63.5337C78.1129 62.559 77.7689 63.3043 77.4249 64.6231C76.7369 67.3179 76.0488 69.9554 74.3861 72.3062C72.838 74.5423 73.7553 81.1934 75.5901 83.2002C76.1061 83.7735 76.3355 84.1175 75.5328 84.5762C69.9138 87.9591 64.1801 90.9406 57.4144 91.514C50.878 92.0873 44.5137 91.5713 38.092 90.3099C37.6333 90.1952 36.8306 90.4246 36.7732 89.6219C36.7159 88.9338 37.4613 88.8191 37.8626 88.5898C41.3602 86.583 43.0803 83.8309 43.4243 79.5306C43.8256 75.001 41.2455 72.6502 38.6653 70.0127C35.9705 67.2032 33.8491 64.1071 33.333 60.1508C33.161 57.9147 32.7023 55.7359 32.473 53.4998C32.2436 50.7476 32.129 48.0528 32.817 45.358C33.0463 44.6699 33.505 44.0392 33.2757 43.2365C33.1037 41.5738 33.6197 39.9683 33.9637 38.3629C34.6518 34.98 34.7664 31.5398 35.3971 28.157C35.8558 25.6342 37.2893 24.1434 39.6974 23.4554C45.087 22.022 50.362 20.3592 55.809 19.1551C60.3386 18.1804 63.9508 19.7858 67.1043 22.9394C71.0032 26.8382 73.698 31.5398 76.2782 36.2988C77.1382 37.8469 77.9983 39.4523 79.2023 40.771C81.7251 43.6379 81.5531 46.9061 81.0371 50.2889C80.8078 51.7797 80.5211 53.2704 80.3491 54.7612C80.2917 55.0479 80.2917 55.3345 80.2917 55.6212C80.2917 55.7932 80.2917 55.9653 80.2917 56.1373C80.2917 56.3093 80.2917 56.3666 80.3491 56.3666C80.2917 56.3093 80.2917 56.2519 80.3491 56.1946C80.3491 55.8506 80.3491 55.5066 80.3491 55.1625C80.4064 54.5892 80.4637 54.0158 80.8078 53.6145C82.8145 51.321 83.1586 48.4542 83.4452 45.5873C83.5026 44.8993 83.5026 44.0966 84.3053 43.8672C85.108 43.5805 85.7387 44.1539 86.2547 44.7273C87.1721 45.5873 87.6881 46.7341 88.0322 47.9381C89.2362 52.009 86.7708 58.8321 83.2732 61.3549Z" fill="#FCECE4"/>
<path d="M83.2736 61.3547C85.395 58.3732 87.3445 55.3917 87.7458 51.6075C88.0325 48.8553 87.6885 46.3898 85.395 44.5551C84.9937 44.2111 84.1336 43.523 84.191 44.7844C84.3056 48.798 82.5855 52.1808 80.7508 55.5064C80.2921 55.7357 80.2347 55.3344 80.0054 55.105C79.604 52.4675 80.8654 50.0021 80.9228 47.3646C80.9801 45.3578 80.6934 43.6377 79.432 41.9749C76.7372 38.4774 74.6731 34.5785 72.609 30.7369C70.7742 27.3541 68.2514 24.5446 65.4419 22.0791C62.8617 19.843 59.6509 18.6963 56.096 19.671C50.7637 21.1044 45.3741 22.5378 39.9844 23.9139C37.5763 24.5446 36.2575 25.978 35.9709 28.5008C35.3975 33.5464 34.7094 38.5921 33.6774 43.523C33.7921 43.9817 33.6774 44.3831 33.448 44.7844C32.7027 49.0273 33.1614 53.3276 33.6201 57.5705C33.7347 58.4305 34.0787 59.2906 33.3907 60.0933C33.2187 59.6919 33.0467 59.2906 32.8747 58.8892C31.4413 56.5384 30.8106 53.9009 30.4092 51.2061C30.1799 49.486 29.8932 47.8233 29.4918 45.6445C28.9758 49.2567 30.2372 52.0662 31.1546 54.9903C31.6706 56.6531 32.6453 58.2585 32.1866 60.0933C31.9 62.0427 31.6706 63.9922 32.072 65.999C32.7027 68.8085 30.6385 70.8726 29.6065 73.2234C27.7144 74.6568 26.7397 74.5421 26.2236 72.822C26.281 71.2166 25.9369 69.7832 24.8475 68.4644C23.3568 66.6297 22.2674 64.5656 23.0701 62.0427C23.2995 61.3547 22.9554 60.724 22.7834 60.036C22.3247 57.7998 22.3247 55.6784 23.9302 53.8436C24.4462 53.2129 24.6755 52.5822 24.6755 51.7795C24.6182 48.626 24.9622 45.4725 24.2742 42.3763C23.8728 40.7709 24.4462 39.2801 24.9622 37.7893C25.3062 36.8146 25.5929 35.8399 25.9369 34.8652C26.281 33.6038 26.281 32.3997 25.9369 31.1383C25.8223 29.2462 26.109 27.4688 26.5676 25.634C27.141 23.3405 26.797 23.0538 24.2168 23.6845C26.6823 20.5884 28.2304 17.2628 31.2693 15.0267C33.276 13.536 35.1108 11.9305 36.7162 9.98108C37.3469 9.23571 38.207 8.605 39.1244 8.03164C41.3605 6.65556 43.482 5.10747 45.6607 3.84606C49.3303 1.66727 53.5732 1.78195 57.7014 2.35531C62.059 2.98601 66.2446 4.36209 69.8568 7.11425C71.2902 8.20365 73.0677 8.71968 74.7304 9.23571C77.8266 10.1531 80.2347 11.9879 81.7828 14.8547C82.9296 16.9762 84.7643 18.6389 86.0831 20.6457C87.5165 22.8818 88.3765 25.29 88.4339 27.9848C88.7206 35.6106 89.1792 43.179 89.4659 50.8048C89.5233 52.8689 89.2366 54.933 87.7458 56.5958C87.1725 57.2265 87.4591 57.9145 87.5738 58.5452C88.0325 60.9533 87.9752 63.3041 87.2298 65.6549C87.1151 66.0563 86.9431 66.515 87.0578 66.8017C88.4912 70.0699 88.4339 73.4527 87.5165 76.8356C87.8605 78.1543 86.9431 78.5557 85.9684 78.613C84.9937 78.6704 83.7323 79.1291 83.5603 77.409C83.5603 75.1155 83.9616 72.8794 82.6429 70.7006C81.9548 69.6112 81.9548 68.0631 83.1016 66.9164C83.6749 66.343 83.6176 65.7123 83.3882 65.0242C83.0442 63.9349 83.4456 62.6161 83.2736 61.3547Z" fill="#062942"/>
<path d="M12.2334 94.7248C15.6163 92.4887 18.3111 89.4498 21.2352 86.755C23.07 85.0922 23.7581 82.7414 24.5608 80.5053C25.3635 80.448 25.5928 81.136 25.7075 81.652C25.9369 83.2575 26.7969 84.4615 27.7716 85.6656C27.4849 91.0553 24.5034 94.7821 20.3179 97.7063C18.7124 98.853 16.9923 99.8278 15.2722 100.802C14.6415 101.146 13.8388 101.663 13.1508 101.147C12.4054 100.573 13.0361 99.7704 13.1508 99.0824C13.2655 98.6237 13.4375 98.165 13.6095 97.7063C13.7815 96.9036 14.4122 96.2729 14.5842 95.4128C14.6989 95.0688 14.9282 94.8395 15.0429 94.4955C14.4695 94.4955 14.0108 94.8395 13.4948 94.9541C13.2081 95.0115 12.9214 95.0115 12.6348 94.9541C12.5201 95.0115 12.3481 94.8968 12.2334 94.7248Z" fill="#062942"/>
<path d="M88.2045 94.3807C88.4912 96.5595 89.4086 98.5663 89.4659 100.802C89.5232 101.949 89.2366 102.35 88.0325 101.662C83.8469 99.3116 81.1521 93.922 82.0695 89.2204C82.4708 86.9843 82.4708 84.6908 83.3309 82.5693C85.4523 82.5693 86.7137 83.7734 87.7458 85.4362C87.9178 85.9522 87.9178 86.4682 87.6885 86.9269C88.0325 88.0163 88.7205 88.9337 88.7205 90.1378C88.8925 90.4245 88.7205 90.6538 88.4912 90.8258C87.8031 91.1698 88.0325 91.6285 88.3765 92.0872C88.4912 92.2592 88.4912 92.4312 88.5485 92.6032C88.7205 93.2339 87.9178 93.6926 88.2045 94.3807Z" fill="#062942"/>
<path d="M27.8286 85.7228C26.2232 85.1494 25.2485 84.1747 25.3058 82.3399C25.3631 81.7092 25.1911 80.9639 24.5604 80.5052C22.783 79.8745 21.8656 78.7851 21.9229 76.7783C22.0376 75.0582 22.611 73.9688 24.3884 73.6821C25.0765 73.5674 25.7072 73.2808 26.2232 72.8794C27.1406 74.6568 28.4593 73.0514 29.6061 73.2807C29.7207 73.6821 29.8927 74.0835 29.8927 74.4848C29.7781 76.893 29.6061 79.0144 31.5555 81.1932C33.3903 83.028 31.2688 86.1815 27.8286 85.7228Z" fill="#03ADEF"/>
<path d="M87.5166 85.7225C86.4846 84.1744 84.9365 83.3717 83.331 82.6263C81.955 80.8489 82.7003 79.2435 83.6177 77.5807C85.1085 78.8421 86.7712 78.6127 87.574 77.0073C88.434 77.4087 89.5234 77.5807 89.2941 79.0714C89.1794 79.7595 90.0968 79.8742 90.6701 79.9888C91.4155 80.2755 92.1035 80.6195 91.5875 81.5943C91.5875 81.8809 91.5302 82.1103 91.5302 82.397C91.7595 83.0277 91.3008 83.4864 91.1862 84.0597C91.0142 84.2891 90.8421 84.5758 90.6701 84.8051C89.9821 86.2959 88.778 86.1238 87.5166 85.7225Z" fill="#04AEEE"/>
<path d="M32.2438 60.0937C32.0145 57.1122 30.2371 54.5894 29.549 51.7226C29.1477 50.1172 28.689 48.5691 28.689 46.9063C28.689 46.0463 28.861 45.1862 29.893 44.3262C30.7531 49.3718 31.2691 54.2454 32.8745 58.8897C32.7025 59.3484 32.4732 59.7497 32.2438 60.0937Z" fill="#FBEBE1"/>
<path d="M63.0912 78.6702C59.307 80.333 55.4081 80.9064 51.2799 79.9316C49.6745 79.5303 48.241 78.8422 47.209 77.2368C52.1399 79.5303 57.1856 79.3583 62.2312 78.3262C62.6899 78.0395 63.1486 77.8675 63.0912 78.6702Z" fill="#D5B5AA"/>
<path d="M66.8179 76.6059C68.1366 75.2299 69.742 74.3698 71.4048 73.5098C70.1434 74.8858 68.7673 76.2046 66.8179 76.6059Z" fill="#EDDBD4"/>
<path d="M63.0908 78.6703C62.9188 78.3263 62.5748 78.3263 62.2881 78.269C63.0335 77.6956 63.9508 77.7529 64.7536 77.4089C65.1549 77.2942 65.2696 77.4662 65.1549 77.8103C64.4669 78.097 63.7788 78.3836 63.0908 78.6703Z" fill="#DDC6BF"/>
<path d="M65.1553 77.81C65.0406 77.6953 64.8686 77.5233 64.7539 77.4087C65.3273 76.8926 66.0726 76.778 66.818 76.606C66.5313 77.3513 65.786 77.5233 65.1553 77.81Z" fill="#EDDBD4"/>
</svg>
